<svg width="100%" height="119" viewBox="0 0 430 119" fill="none" xmlns="http://www.w3.org/2000/svg" class="jsx-902277623"><defs class="jsx-902277623"><clipPath id="w" class="jsx-902277623"><path d="M75.2233 67.7344C75.8678 67.9035 76.098 68.2839 75.9139 68.8758C74.9931 72.8494 73.4739 76.4425 71.3562 79.6552C69.3305 82.7834 66.8445 85.362 63.8981 87.3911C60.2151 89.9274 56.7623 91.4492 53.5397 91.9565C52.711 92.041 51.9284 92.0833 51.1918 92.0833C50.4552 91.9988 49.7186 91.8719 48.982 91.7028C48.5217 93.0556 48.0613 94.4083 47.6009 95.761C47.1405 97.0292 46.6341 98.2551 46.0817 99.4387C44.9768 101.975 43.6877 104.469 42.2145 106.921C40.7414 109.457 39.1761 111.317 37.5187 112.501C37.4267 112.501 37.3346 112.543 37.2425 112.628C36.8742 112.797 36.6901 112.881 36.6901 112.881C35.3089 113.558 33.8818 114.065 32.4086 114.403C30.9354 114.741 29.5543 114.91 28.2652 114.91C26.2396 114.91 24.7664 114.614 23.8457 114.023C19.6102 111.74 17.7687 104.3 18.3212 91.7028C18.3212 90.7728 18.3212 89.8429 18.3212 88.9129C18.4133 87.9829 18.5053 87.0529 18.5974 86.1229C17.8608 87.9829 17.0321 89.8006 16.1114 91.576C15.2827 93.2669 14.2699 94.7042 13.0729 95.8878C10.8631 98.1705 8.51523 99.0582 6.02921 98.551C1.51756 97.621 -0.462047 91.6606 0.0904006 80.6698C0.182475 78.7252 0.366624 76.823 0.642848 74.963C0.826998 73.103 1.01115 71.4544 1.1953 70.0171C1.47152 68.3262 1.74774 66.7199 2.02397 65.198C2.02397 64.8599 2.25415 64.6062 2.71453 64.4371C2.8066 64.4371 3.1749 64.3949 3.81942 64.3103C4.46395 64.1412 5.24658 64.0144 6.16733 63.9299C7.08807 63.8453 8.10089 63.8453 9.20579 63.9299C10.4028 63.9299 11.5077 64.099 12.5205 64.4371C12.9808 64.6908 13.211 65.029 13.211 65.4517C13.211 65.5362 12.9808 66.6776 12.5205 68.8758C12.1522 70.9894 11.8299 73.568 11.5537 76.6116C11.2775 79.5707 11.1394 82.6566 11.1394 85.8693C11.2314 88.9974 11.6918 91.576 12.5205 93.6051C13.7174 91.9988 14.7763 90.0965 15.6971 87.8983C16.7099 85.6156 17.5385 83.4597 18.1831 81.4307C18.9197 79.317 19.4261 77.5416 19.7023 76.1043C20.0706 74.5825 20.2547 73.8216 20.2547 73.8216C20.3468 73.8216 20.3929 73.7793 20.3929 73.6948C20.3929 73.5257 20.4849 73.3566 20.6691 73.1875L20.9453 73.0607H21.0834C21.2676 73.0607 22.2343 72.9762 23.9838 72.8071C25.8253 72.5534 28.0351 72.638 30.6131 73.0607C31.1656 73.2298 31.4418 73.568 31.4418 74.0753C31.4418 74.0753 31.3497 74.5403 31.1656 75.4702C31.0735 76.3157 30.8894 77.457 30.6131 78.8943C30.429 80.3316 30.1988 81.9802 29.9226 83.8402C29.7384 85.7002 29.6003 87.6447 29.5082 89.6738C29.1399 95.0001 29.1399 99.3964 29.5082 102.863C29.9686 106.329 30.7973 108.781 31.9943 110.218C32.6388 110.979 33.4675 111.444 34.4803 111.613C35.4931 111.782 36.8282 110.895 38.4855 108.95C40.2349 107.09 42.1685 103.708 44.2862 98.8046C44.7466 97.5364 45.207 96.2683 45.6673 95.0001C46.2198 93.7319 46.7262 92.3792 47.1866 90.9419L45.9436 90.181C42.3527 87.5601 40.281 82.7411 39.7285 75.7239C39.5444 72.7648 39.6365 69.848 40.0048 66.9735C40.4651 64.0144 41.2017 61.4781 42.2145 59.3645C44.056 55.4754 46.3579 53.7 49.1201 54.0381C51.6062 54.4609 53.1254 56.4899 53.6778 60.1254C53.9541 61.6472 54.0922 63.4649 54.0922 65.5785C54.0922 67.6921 53.908 69.9748 53.5397 72.4266C53.0793 75.1321 52.5269 78.0066 51.8824 81.0502C51.2379 84.0093 50.4552 86.9683 49.5345 89.9274C50.4552 90.2656 51.6982 90.3501 53.2635 90.181C56.1178 89.7583 59.2944 88.3211 62.7932 85.8693C65.4634 83.9247 67.7653 81.4729 69.6988 78.5139C71.6324 75.5548 73.0596 72.173 73.9803 68.3685C74.1644 67.7767 74.5788 67.5653 75.2233 67.7344ZM47.739 89.1665C48.5677 86.292 49.3043 83.4175 49.9488 80.5429C50.5933 77.6684 51.1458 74.8784 51.6062 72.173C52.2507 67.3539 52.2967 63.4649 51.7443 60.5058C51.2839 57.5467 50.3171 55.9827 48.8439 55.8136H48.4296C47.4168 55.8136 46.5421 56.3208 45.8055 57.3354C45.0689 58.2654 44.4704 59.1531 44.01 59.9986C43.0893 62.0276 42.3987 64.4371 41.9383 67.2271C41.57 70.0171 41.4779 72.8071 41.6621 75.5971C41.8462 78.7252 42.3987 81.4307 43.3194 83.7134C44.3323 85.9961 45.6213 87.687 47.1866 88.786C47.2787 88.8706 47.3707 88.9551 47.4628 89.0397C47.5549 89.0397 47.647 89.082 47.739 89.1665Z" class="jsx-902277623"></path></clipPath><clipPath id="e" class="jsx-902277623"><path d="M114.936 70.5527C115.581 70.8909 115.765 71.3136 115.489 71.8209C114.66 73.6809 113.417 75.7522 111.76 78.0349C110.194 80.2331 108.307 82.389 106.097 84.5026C103.979 86.6162 101.585 88.5185 98.9151 90.2094C96.3371 91.9003 93.6209 93.1262 90.7665 93.8871C90.5824 93.8871 90.4443 93.9293 90.3522 94.0139C90.2601 94.0139 90.122 94.0139 89.9379 94.0139C88.5568 94.3521 87.1296 94.5212 85.6564 94.5212C81.8813 94.5212 78.4285 93.2953 75.298 90.8435C71.8912 88.138 70.0497 84.4603 69.7735 79.8104C69.5894 76.7667 70.0958 73.6809 71.2928 70.5527C72.5818 67.4245 74.2852 64.7614 76.4029 62.5632C77.9682 61.0414 79.6715 59.9001 81.513 59.1392C83.4466 58.3782 85.2881 58.0823 87.0375 58.2514C88.4186 58.4205 89.6616 58.801 90.7665 59.3928C90.9507 59.4773 91.1809 59.6464 91.4571 59.9001C92.4699 60.5764 93.2986 61.3796 93.9431 62.3096C95.6925 65.0996 95.9227 68.0586 94.6337 71.1868C93.8971 72.9622 92.7461 74.484 91.1809 75.7522C89.6156 76.9358 87.7741 77.8236 85.6564 78.4154C84.0911 78.8381 82.5259 78.9226 80.9606 78.669V79.6835C81.2368 83.8262 82.8481 87.1235 85.7945 89.5753H85.9326C87.1296 90.5053 88.5107 91.0548 90.076 91.2239C91.6413 91.393 93.1605 91.1394 94.6337 90.463C96.8435 89.4485 98.9612 88.138 100.987 86.5317C103.012 84.9253 104.854 83.2344 106.511 81.459C108.169 79.6835 109.596 77.9081 110.793 76.1327C112.082 74.3572 113.049 72.7086 113.693 71.1868C113.877 70.595 114.292 70.3836 114.936 70.5527ZM87.1756 63.8314C85.4262 65.5223 83.999 67.5091 82.8942 69.7918C81.8813 72.0745 81.2829 74.4418 81.0987 76.8936C81.8353 76.9781 82.5259 77.0204 83.1704 77.0204C83.8149 76.9358 84.4594 76.809 85.104 76.6399C88.7869 75.7099 91.365 73.6809 92.8382 70.5527C93.8511 67.9318 93.6669 65.5223 92.2858 63.3241H92.1477C91.6873 62.6478 91.0888 62.2673 90.3522 62.1828C89.6156 62.0982 88.9251 62.3096 88.2805 62.8169C88.0964 62.9859 87.9122 63.155 87.7281 63.3241C87.5439 63.4932 87.3598 63.6623 87.1756 63.8314Z" class="jsx-902277623"></path></clipPath><clipPath id="d1" class="jsx-902277623"><path d="M188.638 59.1531C189.19 59.3222 189.467 59.6604 189.467 60.1676C189.467 60.1676 189.282 60.9708 188.914 62.5772C188.638 64.1835 188.224 66.2971 187.671 68.918C187.119 71.4544 186.474 74.3711 185.738 77.6684C185.001 80.9656 184.172 84.3052 183.252 87.687C182.239 91.7451 181.226 95.3805 180.213 98.5932C179.2 101.89 178.234 104.765 177.313 107.217C175.748 111.275 174.412 113.938 173.308 115.206C172.203 116.559 171.282 117.32 170.545 117.489C169.256 117.996 168.059 118.25 166.954 118.25C165.021 118.25 163.317 117.869 161.844 117.109C160.371 116.348 159.588 115.925 159.496 115.84C159.496 115.84 159.45 115.798 159.358 115.714C156.504 113.093 154.156 107.428 152.315 98.72C151.762 95.9301 151.256 92.971 150.795 89.8428C150.427 86.6301 150.151 83.2484 149.967 79.6975C148.125 84.7702 146.238 88.7015 144.304 91.4915C140.989 95.9724 136.984 98.3819 132.288 98.72H130.217C123.956 98.72 119.26 96.5219 116.129 92.1256C113.275 88.0674 112.078 82.9102 112.538 76.6539C112.722 73.7793 113.275 70.9471 114.196 68.1571C115.024 65.3671 116.129 62.7462 117.51 60.2944C119.352 57.1663 121.47 54.7568 123.863 53.0659C126.257 51.375 128.743 50.5295 131.322 50.5295C133.255 50.5295 135.143 50.7832 136.984 51.2904H137.26C142.416 52.7277 146.238 55.9827 148.724 61.0553L149.552 62.9576C149.644 58.054 149.875 53.3195 150.243 48.7541C150.611 44.1041 151.118 39.7501 151.762 35.6919C152.407 31.6338 153.189 27.9138 154.11 24.532C155.031 21.0657 156.044 18.0643 157.148 15.528C160.187 8.93348 163.824 5.63623 168.059 5.63623C170.177 5.63623 171.88 6.22804 173.169 7.41167C173.354 7.58076 173.446 7.66531 173.446 7.66531L173.722 7.91894C173.722 7.91894 173.814 8.08803 173.998 8.42621C176.392 11.808 175.794 18.7407 172.203 29.2242C170.914 32.8597 169.302 36.8333 167.369 41.1451C165.435 45.4568 163.179 50.1491 160.601 55.2218C160.509 55.8981 160.417 56.5745 160.325 57.2508C160.325 57.8427 160.325 58.4767 160.325 59.1531C160.049 65.494 160.003 71.708 160.187 77.7952C160.371 83.8824 160.831 89.4624 161.568 94.5351C162.305 99.8614 163.271 104.342 164.468 107.978C165.757 111.613 167.185 114.149 168.75 115.587C169.118 116.009 169.44 116.094 169.717 115.84C170.085 115.756 170.591 115.375 171.236 114.699C171.88 114.023 172.663 112.67 173.584 110.641C174.597 108.612 175.748 105.737 177.037 102.017C178.326 98.3819 179.753 93.4783 181.318 87.3065C182.239 83.9247 183.067 80.5852 183.804 77.2879C184.541 73.9907 185.185 71.0739 185.738 68.5376C186.29 66.0012 186.704 63.9299 186.981 62.3235C187.257 60.7172 187.395 59.914 187.395 59.914C187.487 59.4067 187.901 59.1531 188.638 59.1531ZM170.269 28.717C171.65 24.6588 172.571 21.3616 173.031 18.8252C173.492 16.2889 173.63 14.2598 173.446 12.738C173.354 12.0616 172.939 11.6389 172.203 11.4698C171.466 11.3007 170.868 11.5121 170.407 12.1039C168.105 15.6548 166.126 20.8543 164.468 27.7024C163.64 30.9151 162.949 34.4237 162.397 38.2283C161.844 41.9482 161.338 45.9218 160.877 50.1491C165.113 41.9482 168.243 34.8042 170.269 28.717ZM142.647 90.4769C145.225 86.926 147.573 81.5152 149.69 74.2443V71.708C149.598 71.6234 149.552 71.5389 149.552 71.4544C149.552 71.3698 149.414 70.3553 149.138 68.4107C148.862 66.3817 148.125 64.1412 146.928 61.6894C145.455 58.7304 143.383 56.4054 140.713 54.7145C139.516 54.0381 138.227 53.7422 136.846 53.8268C135.557 53.9113 134.406 54.4186 133.393 55.3486C132.104 56.2786 130.953 57.5045 129.94 59.0263C128.928 60.4635 128.007 62.0699 127.178 63.8453C125.889 66.5508 124.922 69.4253 124.278 72.4689C123.725 75.428 123.541 78.3025 123.725 81.0925C123.91 82.6143 124.232 84.3897 124.692 86.4188C125.245 88.4479 126.211 90.3079 127.592 91.9988C129.342 94.0278 131.552 95.0846 134.222 95.1692C136.984 95.1692 139.286 94.1969 141.127 92.2524C141.404 91.9987 141.634 91.7451 141.818 91.4915C142.094 91.1533 142.37 90.8151 142.647 90.4769Z" class="jsx-902277623"></path></clipPath><clipPath id="d2" class="jsx-902277623"><path d="M261.001 53.5169C261.554 53.6859 261.83 54.0241 261.83 54.5314C261.83 54.5314 261.646 55.3346 261.278 56.9409C261.002 58.5473 260.587 60.6609 260.035 63.2818C259.482 65.8181 258.838 68.7349 258.101 72.0322C257.365 75.3294 256.536 78.6689 255.615 82.0507C254.602 86.1089 253.589 89.7443 252.577 92.957C251.564 96.2542 250.597 99.1288 249.676 101.581C248.111 105.639 246.776 108.302 245.671 109.57C244.566 110.923 243.645 111.684 242.909 111.853C241.62 112.36 240.423 112.614 239.318 112.614C237.384 112.614 235.681 112.233 234.208 111.472C232.735 110.711 231.952 110.289 231.86 110.204C231.86 110.204 231.814 110.162 231.722 110.077C228.867 107.456 226.52 101.792 224.678 93.0838C224.126 90.2939 223.619 87.3348 223.159 84.2066C222.791 80.9939 222.514 77.6121 222.33 74.0612C220.489 79.1339 218.601 83.0653 216.668 85.8552C213.353 90.3361 209.348 92.7457 204.652 93.0838H202.58C196.319 93.0838 191.623 90.8857 188.493 86.4893C185.638 82.4312 184.441 77.2739 184.902 71.0176C185.086 68.1431 185.638 65.3109 186.559 62.5209C187.388 59.7309 188.493 57.11 189.874 54.6582C191.715 51.5301 193.833 49.1205 196.227 47.4296C198.621 45.7387 201.107 44.8933 203.685 44.8933C205.619 44.8933 207.506 45.1469 209.348 45.6542H209.624C214.78 47.0915 218.601 50.3464 221.087 55.4191L221.916 57.3214C222.008 52.4178 222.238 47.6833 222.606 43.1178C222.975 38.4679 223.481 34.1138 224.126 30.0557C224.77 25.9975 225.553 22.2776 226.474 18.8958C227.394 15.4294 228.407 12.4281 229.512 9.89174C232.55 3.29725 236.187 0 240.423 0C242.541 0 244.244 0.591813 245.533 1.77544C245.717 1.94453 245.809 2.02908 245.809 2.02908L246.085 2.28271C246.085 2.28271 246.177 2.4518 246.362 2.78998C248.756 6.17177 248.157 13.1044 244.566 23.588C243.277 27.2234 241.666 31.197 239.732 35.5088C237.799 39.8206 235.543 44.5128 232.965 49.5855C232.873 50.2619 232.781 50.9382 232.689 51.6146C232.689 52.2064 232.689 52.8405 232.689 53.5169C232.412 59.8577 232.366 66.0718 232.55 72.159C232.735 78.2462 233.195 83.8262 233.932 88.8989C234.668 94.2252 235.635 98.706 236.832 102.341C238.121 105.977 239.548 108.513 241.113 109.951C241.482 110.373 241.804 110.458 242.08 110.204C242.448 110.12 242.955 109.739 243.599 109.063C244.244 108.386 245.027 107.034 245.947 105.005C246.96 102.976 248.111 100.101 249.4 96.3811C250.689 92.7456 252.116 87.842 253.682 81.6703C254.602 78.2885 255.431 74.949 256.168 71.6517C256.904 68.3545 257.549 65.4377 258.101 62.9013C258.654 60.365 259.068 58.2936 259.344 56.6873C259.62 55.0809 259.758 54.2778 259.758 54.2778C259.851 53.7705 260.265 53.5169 261.001 53.5169ZM242.633 23.0807C244.014 19.0226 244.934 15.7253 245.395 13.189C245.855 10.6526 245.993 8.62357 245.809 7.10176C245.717 6.42541 245.303 6.00268 244.566 5.83359C243.83 5.6645 243.231 5.87587 242.771 6.46768C240.469 10.0186 238.489 15.2181 236.832 22.0662C236.003 25.2789 235.313 28.7875 234.76 32.592C234.208 36.312 233.701 40.2856 233.241 44.5128C237.476 36.312 240.607 29.168 242.633 23.0807ZM215.01 84.8407C217.588 81.2898 219.936 75.879 222.054 68.6081V66.0718C221.962 65.9872 221.916 65.9027 221.916 65.8181C221.916 65.7336 221.778 64.719 221.501 62.7745C221.225 60.7454 220.489 58.505 219.292 56.0532C217.818 53.0941 215.747 50.7692 213.077 49.0783C211.88 48.4019 210.591 48.106 209.209 48.1905C207.92 48.2751 206.77 48.7824 205.757 49.7123C204.468 50.6423 203.317 51.8682 202.304 53.39C201.291 54.8273 200.37 56.4337 199.542 58.2091C198.253 60.9145 197.286 63.7891 196.641 66.8327C196.089 69.7917 195.905 72.6663 196.089 75.4562C196.273 76.978 196.595 78.7535 197.056 80.7826C197.608 82.8116 198.575 84.6716 199.956 86.3625C201.705 88.3916 203.915 89.4484 206.585 89.533C209.348 89.533 211.65 88.5607 213.491 86.6161C213.767 86.3625 213.997 86.1089 214.182 85.8552C214.458 85.5171 214.734 85.1789 215.01 84.8407Z" class="jsx-902277623"></path></clipPath><clipPath id="i-dot" class="jsx-902277623"><path d="M264.729 35.0296C265.65 36.5514 266.893 37.3969 268.458 37.566C269.931 37.7351 271.266 37.1855 272.463 35.9173C273.752 34.5646 274.535 32.8737 274.811 30.8447C275.088 28.9001 274.811 27.167 273.983 25.6451C273.154 24.0388 271.957 23.1511 270.392 22.982C268.826 22.8129 267.399 23.3624 266.11 24.6306C264.913 25.8988 264.177 27.5474 263.9 29.5765C263.624 31.6056 263.9 33.4233 264.729 35.0296Z" class="jsx-902277623"></path></clipPath><clipPath id="i" class="jsx-902277623"><path d="M288.208 57.7298C288.576 57.138 288.392 56.7576 287.656 56.5885C287.195 56.3348 286.781 56.4616 286.413 56.9689L285.722 58.3639C285.262 59.2939 284.617 60.5198 283.789 62.0416C283.052 63.4789 282.131 65.1275 281.026 66.9875C280.014 68.8475 278.909 70.7074 277.712 72.5674C276.883 74.0047 276.1 75.2729 275.364 76.372C274.627 77.3865 273.891 78.3587 273.154 79.2887C272.694 79.8806 272.095 80.0919 271.359 79.9228C270.622 79.6692 270.208 79.2042 270.116 78.5278C269.839 76.076 269.747 73.4129 269.839 70.5384C270.023 67.6638 270.208 65.0007 270.392 62.5489L271.082 56.208L271.497 53.6717C271.589 53.418 271.543 53.2067 271.359 53.0376C271.174 52.784 270.944 52.6571 270.668 52.6571C270.392 52.6571 269.793 52.6149 268.873 52.5303C268.044 52.4458 267.123 52.4035 266.11 52.4035C265.097 52.319 264.085 52.319 263.072 52.4035C262.151 52.4035 261.414 52.5303 260.862 52.784C260.586 52.953 260.448 53.1644 260.448 53.418L260.171 54.9398C259.987 55.8698 259.803 57.0957 259.619 58.6175C259.435 60.1393 259.297 61.9148 259.205 63.9439C259.021 65.8884 258.882 67.8752 258.79 69.9043C258.422 81.4869 260.079 87.6587 263.762 88.4196C263.947 88.5041 264.223 88.5464 264.591 88.5464C266.525 88.5464 268.873 87.0669 271.635 84.1078C272.832 82.8396 274.029 81.3178 275.226 79.5424C276.515 77.7669 277.896 75.7379 279.369 73.4552C280.566 71.5106 281.671 69.6084 282.684 67.7484C283.789 65.8884 284.755 64.2398 285.584 62.8025C286.413 61.2807 287.057 60.0548 287.518 59.1248L288.208 57.7298Z" class="jsx-902277623"></path></clipPath><clipPath id="n" class="jsx-902277623"><path d="M362.021 59.28C362.574 59.4491 362.758 59.8295 362.574 60.4213C362.574 60.4213 362.39 60.8863 362.021 61.8163C361.653 62.6618 361.147 63.8031 360.502 65.2404C359.95 66.5931 359.213 68.1995 358.292 70.0594C357.464 71.8349 356.543 73.6949 355.53 75.6394C349.821 86.2075 344.481 92.0411 339.509 93.1402C339.141 93.2247 338.634 93.267 337.99 93.267C337.714 93.3515 337.023 93.4784 335.918 93.6474C334.905 93.732 333.8 93.7743 332.603 93.7743C331.867 93.7743 331.13 93.732 330.394 93.6474C329.749 93.5629 329.197 93.4361 328.736 93.267C324.961 91.7452 322.613 87.8561 321.693 81.5998C321.232 78.9789 321.002 76.1467 321.002 73.1031C321.002 70.0594 321.094 67.0158 321.278 63.9722C321.37 61.3513 321.416 58.8573 321.416 56.49C321.508 54.1228 321.416 52.0091 321.14 50.1491C320.772 47.951 320.265 46.4714 319.621 45.7105C319.068 44.9496 318.516 44.4846 317.964 44.3156C314.373 46.8519 310.552 51.671 306.5 58.7727C305.211 60.9709 304.06 63.169 303.048 65.3672C302.035 67.4808 301.16 69.3831 300.423 71.074C299.687 72.7649 299.088 74.1599 298.628 75.259C298.168 76.358 297.937 76.9498 297.937 77.0344C297.937 77.1189 297.891 77.2035 297.799 77.288C297.799 77.288 297.799 77.3303 297.799 77.4148H297.661C295.728 79.1903 293.38 79.7398 290.617 79.0635C289.605 78.8098 288.776 78.5139 288.131 78.1757C287.579 77.753 287.257 77.5417 287.165 77.5417C286.98 77.3726 286.888 77.2035 286.888 77.0344C286.428 75.8508 286.198 73.7794 286.198 70.8204C286.106 67.7767 286.106 64.6909 286.198 61.5627C286.29 58.35 286.382 55.5177 286.474 53.0659C286.658 50.5296 286.75 49.1346 286.75 48.881C286.75 48.5428 286.934 48.2892 287.303 48.1201C287.395 48.1201 287.717 48.0355 288.27 47.8664C288.914 47.6128 289.697 47.4437 290.617 47.3592C291.63 47.1901 292.735 47.1478 293.932 47.2324C295.129 47.2324 296.326 47.5283 297.523 48.1201C297.983 48.2892 298.121 48.5851 297.937 49.0078C297.845 50.6141 297.707 52.4741 297.523 54.5877C297.431 56.7014 297.339 58.8995 297.247 61.1822C297.247 63.3804 297.247 65.5363 297.247 67.6499C297.247 69.7635 297.293 71.5813 297.385 73.1031C298.122 71.3276 299.134 69.0872 300.423 66.3817C301.712 63.5918 303.14 60.7595 304.705 57.885C311.979 45.3724 318.7 39.5388 324.869 40.3842C328.368 40.8915 330.67 44.1042 331.775 50.0223C332.235 52.5587 332.465 55.3909 332.465 58.5191C332.557 61.6472 332.557 64.8177 332.465 68.0304C332.465 70.5667 332.465 73.0608 332.465 75.5126C332.465 77.9644 332.557 80.2471 332.742 82.3607C333.018 84.3898 333.386 86.2075 333.846 87.8139C334.307 89.3357 334.997 90.3925 335.918 90.9843C336.747 91.4916 337.806 91.6184 339.095 91.3647C343.514 90.3502 348.394 84.8548 353.735 74.8785C354.747 72.934 355.668 71.1163 356.497 69.4254C357.418 67.6499 358.2 66.0436 358.845 64.6063C359.581 63 360.226 61.4359 360.778 59.9141C360.962 59.3223 361.377 59.1109 362.021 59.28Z" class="jsx-902277623"></path></clipPath><clipPath id="g" class="jsx-902277623"><path d="M429.248 50.1915C429.893 50.3605 430.123 50.741 429.939 51.3328C428.834 54.2919 423.493 58.6459 413.918 64.395C412.536 65.2404 411.155 66.0436 409.774 66.8045C408.485 67.4809 407.288 68.1572 406.183 68.8336C405.539 76.4426 404.48 83.2062 403.007 89.1243C400.889 97.8325 398.035 103.92 394.444 107.386C393.247 108.57 391.958 109.415 390.577 109.922C389.196 110.43 387.722 110.768 386.157 110.937C384.316 111.191 382.612 111.233 381.047 111.064C379.574 110.895 378.193 110.599 376.904 110.176C375.707 109.753 374.694 109.331 373.865 108.908C373.036 108.485 372.438 108.147 372.07 107.893C370.412 106.879 369.215 105.399 368.479 103.455C367.558 101.003 367.742 98.0438 369.031 94.5775C370.32 91.1111 373.175 87.7716 377.594 84.5589C379.344 83.3753 381.001 82.2339 382.566 81.1348C384.224 79.9512 385.835 78.8521 387.4 77.8376C388.873 76.8231 390.254 75.8508 391.544 74.9208C392.833 73.9908 394.122 73.0608 395.411 72.1308C395.595 70.6936 395.687 69.2986 395.687 67.9459C395.779 66.5086 395.871 64.9868 395.963 63.3804C396.147 59.8296 396.239 56.4055 396.239 53.1082C396.239 49.7265 396.239 46.6828 396.239 43.9774C395.963 45.161 395.641 46.4292 395.273 47.7819C394.996 49.1346 394.628 50.4874 394.168 51.8401C392.418 57.42 390.116 61.9009 387.262 65.2827C384.868 67.9881 382.106 69.8481 378.975 70.8627C377.41 71.3699 375.753 71.6236 374.003 71.6236C368.571 71.6236 364.428 69.3831 361.573 64.9023C360.56 63.2959 359.824 61.5205 359.363 59.5759C358.903 57.6314 358.719 55.6446 358.811 53.6155C358.903 51.5019 359.271 49.4306 359.916 47.4015C360.56 45.3724 361.435 43.4701 362.54 41.6947C364.474 38.6511 366.914 36.3684 369.86 34.8466C372.806 33.2402 376.075 32.4793 379.666 32.5639C381.323 32.5639 382.935 32.6907 384.5 32.9443H384.638C388.045 33.7052 390.715 35.1425 392.648 37.2561C393.569 38.5243 394.26 39.7924 394.72 41.0606C394.904 39.877 395.042 38.7356 395.134 37.6366C395.227 36.5375 395.319 35.6075 395.411 34.8466C395.503 33.9166 395.595 33.1134 395.687 32.437C395.687 31.8452 395.917 31.5493 396.377 31.5493C396.469 31.5493 396.838 31.5071 397.482 31.4225C398.127 31.2534 398.909 31.1689 399.83 31.1689C400.843 31.0843 401.902 31.0843 403.007 31.1689C404.112 31.1689 405.171 31.2957 406.183 31.5493C406.644 31.7184 406.874 32.0143 406.874 32.437C406.874 32.437 406.874 33.3248 406.874 35.1002C406.966 36.7911 407.012 39.0738 407.012 41.9483C407.104 44.7383 407.104 48.0356 407.012 51.8401C407.012 55.56 406.874 59.4491 406.598 63.5073C406.506 64.1836 406.414 64.7332 406.322 65.1559C406.322 65.4941 406.322 65.8322 406.322 66.1704V66.5509C408.531 65.3672 410.833 64.0991 413.227 62.7464C415.621 61.3091 417.831 59.8718 419.856 58.4346C421.974 56.9973 423.77 55.6446 425.243 54.3764C426.716 53.0237 427.637 51.8401 428.005 50.8255C428.189 50.2337 428.604 50.0224 429.248 50.1915ZM392.925 49.1769C392.925 49.1769 392.971 48.8387 393.063 48.1624C393.247 47.4015 393.339 46.4715 393.339 45.3724C393.339 44.2733 393.201 43.132 392.925 41.9483C392.648 40.6802 392.05 39.4965 391.129 38.3975C390.945 38.3975 390.853 38.3129 390.853 38.1438C389.472 36.622 387.722 35.7343 385.605 35.4807C383.487 35.1425 381.507 35.5229 379.666 36.622C376.535 38.3129 374.187 40.7224 372.622 43.8506C371.149 46.9788 370.32 50.1492 370.136 53.3619C369.86 56.8282 370.366 59.8718 371.655 62.4927C372.3 63.7609 373.175 64.7754 374.279 65.5363C375.476 66.2972 376.719 66.8045 378.009 67.0581C379.39 67.2272 380.725 67.1004 382.014 66.6777C383.395 66.1704 384.592 65.3672 385.605 64.2682L385.743 64.1413C388.321 61.0977 390.531 56.8282 392.372 51.3328C392.464 50.9101 392.556 50.5296 392.648 50.1915C392.74 49.8533 392.833 49.5151 392.925 49.1769ZM385.467 104.85C390.347 100.031 393.615 89.9698 395.273 74.6672C394.26 75.3435 393.155 76.0622 391.958 76.8231C390.853 77.584 389.702 78.3871 388.505 79.2326C386.94 80.3317 385.375 81.4308 383.809 82.5298C382.244 83.6289 380.541 84.8125 378.699 86.0807C376.673 87.518 375.016 88.9975 373.727 90.5193C372.53 92.0411 371.609 93.5207 370.965 94.9579C370.32 96.4797 369.952 97.917 369.86 99.2697C369.768 100.622 369.906 101.848 370.274 102.947C371.563 106.16 374.326 107.766 378.561 107.766C381.139 107.766 383.441 106.794 385.467 104.85Z" class="jsx-902277623"></path></clipPath></defs><path clip-path="url(#g)" d="M378.5 82L410 63C413.667 60.8333 421.9 55.1 425.5 49.5" stroke-width="20" class="jsx-902277623 path__g-3"></path><path clip-path="url(#g)" d="M398 30C399 51 395 93.2 387 100C377 108.5 369.5 111 365.5 100C361.5 89 383.5 78.5 389 74" stroke-width="20" class="jsx-902277623 path__g-2"></path><path clip-path="url(#g)" d="M385.5 40.5C379.333 38.6666 366.2 37 363 45C359 55 363.5 69.5 372 67.5C380.5 65.5 385.5 57 385.5 51" stroke-width="20" class="jsx-902277623 path__g-1"></path><path clip-path="url(#n)" d="M289 45V82.5C297 67.3333 314.3 37.8 319.5 41C326 45 324 85 326.5 89C329 93 345.5 101 360.5 58.5" stroke-width="20" class="jsx-902277623 path__n"></path><path clip-path="url(#i-dot)" d="M267.266 20.5649L261.766 38.5649" stroke-width="20" class="jsx-902277623 path__i-dot"></path><path clip-path="url(#i)" d="M262.5 50C260.5 59.8333 257.7 80.1 262.5 82.5C267.3 84.9 279.167 66.1667 284.5 56.5" stroke-width="20" class="jsx-902277623 path__i"></path><path clip-path="url(#d2)" d="M248.474 11.5C248.474 3.77851 241.474 -2.49989 233.974 4.77867C220.913 17.4539 221.474 101.279 232.974 108.779C246.007 117.279 252.987 76.3354 255.974 66.7787" stroke-width="20" class="jsx-902277623 path__d2-2"></path><path clip-path="url(#d2)" d="M211 55.5C206.948 46.7786 199.911 49.2749 192.5 55.5C185.089 61.7251 186.5 86.4859 196.474 89.2786C207.839 92.4608 214.545 84.5109 218.026 75.5L227.974 52.5L235.974 33L244.974 11" stroke-width="20" class="jsx-902277623 path__d2-1"></path><path clip-path="url(#d1)" d="M176 16.5C176 8.77851 169 2.50011 161.5 9.77867C148.439 22.4539 149 106.279 160.5 113.779C173.533 122.279 180.513 81.3354 183.5 71.7787" stroke-width="20" class="jsx-902277623 path__d1-2"></path><path clip-path="url(#d1)" d="M139 57.5C134.948 48.7786 126.046 53.9423 120 61.5C112 71.5 115.5 91.8986 124 94.2786C135.365 97.4607 142.072 89.5109 145.552 80.5L155.5 57.5L163.5 38L172.5 16" stroke-width="20" class="jsx-902277623 path__d1-1"></path><path clip-path="url(#e)" d="M83 78.5001C86.3334 76.5001 92.8 71.4001 92 67.0001C91 61.5001 88.0002 57 78.0001 62.5C72.7246 65.4015 65.3944 86.2581 81 92.5002C96 98.5 113.5 72.0003 114 69.5002" stroke-width="20" class="jsx-902277623 path__e"></path><path clip-path="url(#w)" d="M37.5 68.5C37.6667 81.6667 44.3 102.1 69.5 78.5" stroke-width="20" class="jsx-902277623 path__w-3"></path><path clip-path="url(#w)" d="M23.0001 72C20.7341 83.7134 19.9998 100.499 22.0001 105C24.0001 109.5 26.266 115.565 32.766 110.565C42.2464 102.378 57 55.5 46.5 54C37.5 56 37.5 65.5 37.5 70" stroke-width="20" class="jsx-902277623 path__w-2"></path><path clip-path="url(#w)" d="M4.50004 61.5C3 70 2.00002 76 2 85.5C1.99999 89.52 2.50004 96 8.49998 93.2785C14.4999 90.557 20.5 76 22 70" stroke-width="20" class="jsx-902277623 path__w-1"></path></svg>
